<?xml version="1.0" encoding="UTF-8" standalone="no"?>
<svg width="208px" height="140px" viewBox="0 0 208 140" version="1.1" xmlns="http://www.w3.org/2000/svg" xmlns:xlink="http://www.w3.org/1999/xlink">
    <!-- Generator: Sketch 41.2 (35397) - http://www.bohemiancoding.com/sketch -->
    <title>It-logo-mini</title>
    <desc>Created with Sketch.</desc>
    <defs></defs>
    <g id="Page-1" stroke="none" stroke-width="1" fill="none" fill-rule="evenodd">
        <g id="It-logo-mini" fill="#282B30">
            <g id="Page-1">
                <g id="Group-3">
                    <g id="Group-2">
                        <path d="M72.6956493,135.330744 L72.6956493,139.124973 L0,139.124973 L0,135.330744 L4.61212852,135.330744 C8.64552644,135.330744 11.8935043,134.616189 14.3531093,133.178221 C16.130639,132.221544 17.4977424,130.582791 18.4544195,128.259011 C19.2073598,126.617305 19.5823536,122.309306 19.5823536,115.337964 L19.5823536,23.8778613 C19.5823536,16.7677425 19.2073598,12.326871 18.4544195,10.5493413 C17.7044319,8.77181163 16.180835,7.21573498 13.892487,5.88406407 C11.6011863,4.54944046 8.50970191,3.88212865 4.61212852,3.88212865 L0,3.88212865 L0,0.0879 L72.6956493,0.0879 L72.6956493,3.88212865 L68.0835207,3.88212865 C64.0471701,3.88212865 60.802145,4.60258918 58.3425399,6.03465214 C56.5620576,6.99428195 55.1624744,8.63598711 54.137885,10.9597676 C53.3849447,12.5985201 53.0099509,16.9065197 53.0099509,23.8778613 L53.0099509,115.337964 C53.0099509,122.448083 53.4026609,126.891907 54.188081,128.666484 C54.9735011,130.446967 56.5118615,131.997138 58.8031623,133.331761 C61.0915103,134.663432 64.1859473,135.330744 68.0835207,135.330744 L72.6956493,135.330744 Z" id="Fill-1"></path>
                        <path d="M207.884748,0.0879 L207.884748,37.7171995 L204.193864,37.7171995 C202.00886,29.0391933 199.578782,22.7971704 196.915441,19.0058945 C194.252099,15.2116659 190.590742,12.1880938 185.940228,9.93222553 C183.344799,8.70389937 178.800582,8.08678358 172.307579,8.08678358 L161.949483,8.08678358 L161.949483,115.335012 C161.949483,122.44513 162.342193,126.888954 163.133518,128.666484 C163.915986,130.444014 165.451394,131.997138 167.745647,133.331761 C170.036948,134.663432 173.160912,135.330744 177.123445,135.330744 L181.738526,135.330744 L181.738526,139.124973 L108.939532,139.124973 L108.939532,135.330744 L113.554613,135.330744 C117.585058,135.330744 120.838942,134.616189 123.295594,133.178221 C125.070171,132.221544 126.472707,130.579838 127.497296,128.256058 C128.247284,126.617305 128.628183,122.309306 128.628183,115.335012 L128.628183,8.08678358 L118.577168,8.08678358 C109.211181,8.08678358 102.411097,10.0710028 98.1739619,14.0335357 C92.2272097,19.5698616 88.4684136,27.4624477 86.8975734,37.7171995 L83,37.7171995 L83,0.0879 L207.884748,0.0879 Z" id="Fill-4"></path>
                    </g>
                </g>
            </g>
        </g>
    </g>
</svg>